<svg xmlns="http://www.w3.org/2000/svg" width="102" height="17" viewBox="0 0 102 17">
  <g fill="none" fill-rule="evenodd">
    <rect width="17" height="17" fill="#000"/>
    <path fill="#000" fill-rule="nonzero" d="M25.4392166,13.6150442 C26.0633708,13.6150442 26.6238357,13.4802729 27.1206114,13.2107301 C27.6173872,12.9411873 28.0122602,12.5556785 28.3052305,12.0542035 L28.3052305,12.0542035 L28.3052305,13.4646018 L30.6362551,13.4646018 L30.6362551,4.26880531 L28.2479102,4.26880531 L28.2479102,9.38384956 C28.2479102,10.0984513 28.0472892,10.6720133 27.6460473,11.1045354 C27.2448053,11.5370575 26.7130006,11.7533186 26.0506329,11.7533186 C25.4774301,11.7533186 25.0570814,11.5966077 24.7895868,11.2831858 C24.5220922,10.969764 24.3883449,10.4870944 24.3883449,9.83517699 L24.3883449,9.83517699 L24.3883449,4.26880531 L22,4.26880531 L22,9.81637168 C22,12.3488201 23.1464055,13.6150442 25.4392166,13.6150442 Z M35.5084786,13.4646018 L35.5084786,8.25553097 C35.5084786,7.5409292 35.7154685,6.97050147 36.1294483,6.54424779 C36.5434281,6.1179941 37.0943396,5.90486726 37.7821829,5.90486726 C38.3681236,5.90486726 38.7980256,6.06784661 39.0718892,6.39380531 C39.3457527,6.71976401 39.4826845,7.24004425 39.4826845,7.95464602 L39.4826845,7.95464602 L39.4826845,13.4646018 L41.8710294,13.4646018 L41.8710294,7.82300885 C41.8710294,6.55678466 41.5971658,5.61025074 41.0494387,4.98340708 C40.5017116,4.35656342 39.6673832,4.04314159 38.5464533,4.04314159 C37.8713478,4.04314159 37.2663005,4.1810472 36.7313112,4.45685841 C36.1963219,4.73266962 35.7696043,5.12758112 35.4511583,5.64159292 L35.4511583,5.64159292 L35.4511583,4.26880531 L33.1201337,4.26880531 L33.1201337,13.4646018 L35.5084786,13.4646018 Z M46.6859326,16.8495575 L46.6859326,12.0542035 C46.9661651,12.5431416 47.3674071,12.9255162 47.8896585,13.2013274 C48.4119099,13.4771386 49.0042194,13.6150442 49.6665871,13.6150442 C50.4818088,13.6150442 51.2014967,13.4207227 51.8256508,13.0320796 C52.449805,12.6434366 52.9370273,12.0918142 53.2873179,11.3772124 C53.6376085,10.6626106 53.8127538,9.82890855 53.8127538,8.87610619 C53.8127538,7.92330383 53.6376085,7.08019912 53.2873179,6.34679204 C52.9370273,5.61338496 52.4466205,5.04609145 51.8160974,4.6449115 C51.1855744,4.24373156 50.4690709,4.04314159 49.6665871,4.04314159 C48.9914816,4.04314159 48.3896187,4.18418142 47.8609983,4.46626106 C47.332378,4.74834071 46.9279516,5.14638643 46.6477191,5.66039823 L46.6477191,5.66039823 L46.6477191,4.26880531 L44.2975878,4.26880531 L44.2975878,16.8495575 L46.6859326,16.8495575 Z M49.036064,11.7909292 C48.2717936,11.7909292 47.6826686,11.5339233 47.2686888,11.0199115 C46.854709,10.5058997 46.6477191,9.77876106 46.6477191,8.83849558 C46.6477191,7.88569322 46.854709,7.15228614 47.2686888,6.63827434 C47.6826686,6.12426254 48.2717936,5.86725664 49.036064,5.86725664 C49.7875965,5.86725664 50.3735371,6.13053097 50.7938858,6.65707965 C51.2142345,7.18362832 51.4244089,7.92330383 51.4244089,8.87610619 C51.4244089,9.80383481 51.2142345,10.5215708 50.7938858,11.0293142 C50.3735371,11.5370575 49.7875965,11.7909292 49.036064,11.7909292 Z M58.1690948,13.4646018 L58.1690948,0.206858407 L55.7807499,0.206858407 L55.7807499,13.4646018 L58.1690948,13.4646018 Z M64.0157631,13.6150442 C64.6399172,13.6150442 65.2003821,13.4802729 65.6971579,13.2107301 C66.1939336,12.9411873 66.5888066,12.5556785 66.8817769,12.0542035 L66.8817769,12.0542035 L66.8817769,13.4646018 L69.2128015,13.4646018 L69.2128015,4.26880531 L66.8244567,4.26880531 L66.8244567,9.38384956 C66.8244567,10.0984513 66.6238357,10.6720133 66.2225937,11.1045354 C65.8213518,11.5370575 65.289547,11.7533186 64.6271794,11.7533186 C64.0539766,11.7533186 63.6336279,11.5966077 63.3661333,11.2831858 C63.0986386,10.969764 62.9648913,10.4870944 62.9648913,9.83517699 L62.9648913,9.83517699 L62.9648913,4.26880531 L60.5765465,4.26880531 L60.5765465,9.81637168 C60.5765465,12.3488201 61.722952,13.6150442 64.0157631,13.6150442 Z M75.995701,17 C77.5751931,17 78.7693655,16.6301622 79.5782183,15.8904867 C80.3870711,15.1508112 80.7914975,14.0601032 80.7914975,12.6183628 L80.7914975,12.6183628 L80.7914975,4.26880531 L78.4222594,4.26880531 L78.4222594,5.66039823 C78.1420269,5.14638643 77.734416,4.74834071 77.1994268,4.46626106 C76.6644375,4.18418142 76.0530213,4.04314159 75.3651779,4.04314159 C74.5499562,4.04314159 73.8238994,4.23432891 73.1870074,4.61670354 C72.5501154,4.99907817 72.0565242,5.53816372 71.7062336,6.23396018 C71.355943,6.92975664 71.1807977,7.7289823 71.1807977,8.63163717 C71.1807977,9.53429204 71.3591275,10.3303835 71.715787,11.0199115 C72.0724465,11.7094395 72.5660377,12.2453909 73.1965608,12.6277655 C73.8270838,13.0101401 74.5499562,13.2013274 75.3651779,13.2013274 C76.0530213,13.2013274 76.6644375,13.0602876 77.1994268,12.778208 C77.734416,12.4961283 78.1420269,12.0980826 78.4222594,11.5840708 L78.4222594,11.5840708 L78.4222594,12.7876106 C78.4222594,14.3923304 77.5942998,15.1946903 75.9383807,15.1946903 C74.7028103,15.1946903 73.5054534,14.8499263 72.34631,14.1603982 L72.34631,14.1603982 L71.6775734,15.8152655 C72.2380384,16.1913717 72.8940371,16.482854 73.6455696,16.6897124 C74.3971021,16.8965708 75.1804793,17 75.995701,17 Z M75.995701,11.3772124 C75.2441685,11.3772124 74.6518589,11.1296091 74.2187724,10.6344027 C73.7856859,10.1391962 73.5691426,9.47160767 73.5691426,8.63163717 C73.5691426,7.76659292 73.7856859,7.08960177 74.2187724,6.60066372 C74.6518589,6.11172566 75.2441685,5.86725664 75.995701,5.86725664 C76.7599713,5.86725664 77.3554653,6.11172566 77.7821829,6.60066372 C78.2089006,7.08960177 78.4222594,7.76659292 78.4222594,8.63163717 C78.4222594,9.48414454 78.2089006,10.1548673 77.7821829,10.6438053 C77.3554653,11.1327434 76.7599713,11.3772124 75.995701,11.3772124 Z M91.8160974,13.6150442 C92.4402516,13.6150442 93.0007165,13.4802729 93.4974922,13.2107301 C93.994268,12.9411873 94.389141,12.5556785 94.6821113,12.0542035 L94.6821113,12.0542035 L94.6821113,13.4646018 L97.0131359,13.4646018 L97.0131359,4.26880531 L94.624791,4.26880531 L94.624791,9.38384956 C94.624791,10.0984513 94.4241701,10.6720133 94.0229281,11.1045354 C93.6216862,11.5370575 93.0898814,11.7533186 92.4275137,11.7533186 C91.854311,11.7533186 91.4339623,11.5966077 91.1664676,11.2831858 C90.898973,10.969764 90.7652257,10.4870944 90.7652257,9.83517699 L90.7652257,9.83517699 L90.7652257,4.26880531 L88.3768808,4.26880531 L88.3768808,9.81637168 C88.3768808,12.3488201 89.5232864,13.6150442 91.8160974,13.6150442 Z M102,2.3130531 L102,0 L99.3632673,0 L99.3632673,2.3130531 L102,2.3130531 Z M101.885359,13.4646018 L101.885359,4.26880531 L99.4970146,4.26880531 L99.4970146,13.4646018 L101.885359,13.4646018 Z"/>
    <path fill="#00F2A9" d="M9.5,4.28867513 L12.830127,6.21132487 C13.1395281,6.38995766 13.330127,6.72008468 13.330127,7.07735027 L13.330127,10.9226497 C13.330127,11.2799153 13.1395281,11.6100423 12.830127,11.7886751 L9.5,13.7113249 C9.19059892,13.8899577 8.80940108,13.8899577 8.5,13.7113249 L5.16987298,11.7886751 C4.8604719,11.6100423 4.66987298,11.2799153 4.66987298,10.9226497 L4.66987298,7.07735027 C4.66987298,6.72008468 4.8604719,6.38995766 5.16987298,6.21132487 L8.5,4.28867513 C8.80940108,4.11004234 9.19059892,4.11004234 9.5,4.28867513 Z"/>
    <circle cx="9" cy="9" r="1" fill="#000"/>
  </g>
</svg>
